<svg xmlns="http://www.w3.org/2000/svg" xmlns:xlink="http://www.w3.org/1999/xlink" contentstyletype="text/css" height="317px" preserveAspectRatio="none" style="width:641px;height:317px;background:#FFFFFF;" version="1.1" viewBox="0 0 641 317" width="641px" zoomAndPan="magnify"><defs></defs><g><!--class Char--><g id="elem_Char"><rect codeline="1" fill="#F1F1F1" height="129.4844" id="Char" rx="2.5" ry="2.5" style="stroke:#181818;stroke-width:0.5;" width="177" x="220" y="7"></rect><ellipse cx="270.75" cy="23" fill="#ADD1B2" rx="11" ry="11" style="stroke:#181818;stroke-width:1.0;"></ellipse><path d="M273.7188,28.6406 Q273.1406,28.9375 272.5,29.0781 Q271.8594,29.2344 271.1563,29.2344 Q268.6563,29.2344 267.3281,27.5938 Q266.0156,25.9375 266.0156,22.8125 Q266.0156,19.6875 267.3281,18.0313 Q268.6563,16.375 271.1563,16.375 Q271.8594,16.375 272.5,16.5313 Q273.1563,16.6875 273.7188,16.9844 L273.7188,19.7031 Q273.0938,19.125 272.5,18.8594 Q271.9063,18.5781 271.2813,18.5781 Q269.9375,18.5781 269.25,19.6563 Q268.5625,20.7188 268.5625,22.8125 Q268.5625,24.9063 269.25,25.9844 Q269.9375,27.0469 271.2813,27.0469 Q271.9063,27.0469 272.5,26.7813 Q273.0938,26.5 273.7188,25.9219 L273.7188,28.6406 Z " fill="#000000"></path><text fill="#000000" font-family="sans-serif" font-size="14" lengthAdjust="spacing" textLength="67" x="291.25" y="27.8467">Character</text><line style="stroke:#181818;stroke-width:0.5;" x1="221" x2="396" y1="39" y2="39"></line><line style="stroke:#181818;stroke-width:0.5;" x1="221" x2="396" y1="47" y2="47"></line><ellipse cx="231" cy="60.6484" fill="#84BE84" rx="3" ry="3" style="stroke:#038048;stroke-width:1.0;"></ellipse><text fill="#000000" font-family="sans-serif" font-size="14" lengthAdjust="spacing" textLength="111" x="240" y="63.9951">changeHelmet()</text><ellipse cx="231" cy="76.9453" fill="#84BE84" rx="3" ry="3" style="stroke:#038048;stroke-width:1.0;"></ellipse><text fill="#000000" font-family="sans-serif" font-size="14" lengthAdjust="spacing" textLength="127" x="240" y="80.292">changeTopPiece()</text><ellipse cx="231" cy="93.2422" fill="#84BE84" rx="3" ry="3" style="stroke:#038048;stroke-width:1.0;"></ellipse><text fill="#000000" font-family="sans-serif" font-size="14" lengthAdjust="spacing" textLength="109" x="240" y="96.5889">changeGloves()</text><ellipse cx="231" cy="109.5391" fill="#84BE84" rx="3" ry="3" style="stroke:#038048;stroke-width:1.0;"></ellipse><text fill="#000000" font-family="sans-serif" font-size="14" lengthAdjust="spacing" textLength="151" x="240" y="112.8857">changeBottomPiece()</text><ellipse cx="231" cy="125.8359" fill="#84BE84" rx="3" ry="3" style="stroke:#038048;stroke-width:1.0;"></ellipse><text fill="#000000" font-family="sans-serif" font-size="14" lengthAdjust="spacing" textLength="106" x="240" y="129.1826">changeShoes()</text></g><!--class Helm--><g id="elem_Helm"><rect codeline="9" fill="#F1F1F1" height="96.8906" id="Helm" rx="2.5" ry="2.5" style="stroke:#181818;stroke-width:0.5;" width="87" x="7" y="213.48"></rect><ellipse cx="24.7" cy="229.48" fill="#ADD1B2" rx="11" ry="11" style="stroke:#181818;stroke-width:1.0;"></ellipse><path d="M27.6688,235.1206 Q27.0906,235.4175 26.45,235.5581 Q25.8094,235.7144 25.1063,235.7144 Q22.6063,235.7144 21.2781,234.0738 Q19.9656,232.4175 19.9656,229.2925 Q19.9656,226.1675 21.2781,224.5113 Q22.6063,222.855 25.1063,222.855 Q25.8094,222.855 26.45,223.0113 Q27.1063,223.1675 27.6688,223.4644 L27.6688,226.1831 Q27.0438,225.605 26.45,225.3394 Q25.8563,225.0581 25.2313,225.0581 Q23.8875,225.0581 23.2,226.1363 Q22.5125,227.1988 22.5125,229.2925 Q22.5125,231.3863 23.2,232.4644 Q23.8875,233.5269 25.2313,233.5269 Q25.8563,233.5269 26.45,233.2613 Q27.0438,232.98 27.6688,232.4019 L27.6688,235.1206 Z " fill="#000000"></path><text fill="#000000" font-family="sans-serif" font-size="14" lengthAdjust="spacing" textLength="49" x="39.3" y="234.3267">Helmet</text><line style="stroke:#181818;stroke-width:0.5;" x1="8" x2="93" y1="245.48" y2="245.48"></line><ellipse cx="18" cy="259.1284" fill="none" rx="3" ry="3" style="stroke:#038048;stroke-width:1.0;"></ellipse><text fill="#000000" font-family="sans-serif" font-size="14" lengthAdjust="spacing" textLength="33" x="27" y="262.4751">rarity</text><ellipse cx="18" cy="275.4253" fill="none" rx="3" ry="3" style="stroke:#038048;stroke-width:1.0;"></ellipse><text fill="#000000" font-family="sans-serif" font-size="14" lengthAdjust="spacing" textLength="61" x="27" y="278.772">durability</text><ellipse cx="18" cy="291.7222" fill="none" rx="3" ry="3" style="stroke:#038048;stroke-width:1.0;"></ellipse><text fill="#000000" font-family="sans-serif" font-size="14" lengthAdjust="spacing" textLength="30" x="27" y="295.0689">cost</text><line style="stroke:#181818;stroke-width:0.5;" x1="8" x2="93" y1="302.3706" y2="302.3706"></line></g><!--class Top--><g id="elem_Top"><rect codeline="14" fill="#F1F1F1" height="96.8906" id="Top" rx="2.5" ry="2.5" style="stroke:#181818;stroke-width:0.5;" width="101" x="129" y="213.48"></rect><ellipse cx="144" cy="229.48" fill="#ADD1B2" rx="11" ry="11" style="stroke:#181818;stroke-width:1.0;"></ellipse><path d="M146.9688,235.1206 Q146.3906,235.4175 145.75,235.5581 Q145.1094,235.7144 144.4063,235.7144 Q141.9063,235.7144 140.5781,234.0738 Q139.2656,232.4175 139.2656,229.2925 Q139.2656,226.1675 140.5781,224.5113 Q141.9063,222.855 144.4063,222.855 Q145.1094,222.855 145.75,223.0113 Q146.4063,223.1675 146.9688,223.4644 L146.9688,226.1831 Q146.3438,225.605 145.75,225.3394 Q145.1563,225.0581 144.5313,225.0581 Q143.1875,225.0581 142.5,226.1363 Q141.8125,227.1988 141.8125,229.2925 Q141.8125,231.3863 142.5,232.4644 Q143.1875,233.5269 144.5313,233.5269 Q145.1563,233.5269 145.75,233.2613 Q146.3438,232.98 146.9688,232.4019 L146.9688,235.1206 Z " fill="#000000"></path><text fill="#000000" font-family="sans-serif" font-size="14" lengthAdjust="spacing" textLength="69" x="158" y="234.3267">Top Piece</text><line style="stroke:#181818;stroke-width:0.5;" x1="130" x2="229" y1="245.48" y2="245.48"></line><ellipse cx="140" cy="259.1284" fill="none" rx="3" ry="3" style="stroke:#038048;stroke-width:1.0;"></ellipse><text fill="#000000" font-family="sans-serif" font-size="14" lengthAdjust="spacing" textLength="33" x="149" y="262.4751">rarity</text><ellipse cx="140" cy="275.4253" fill="none" rx="3" ry="3" style="stroke:#038048;stroke-width:1.0;"></ellipse><text fill="#000000" font-family="sans-serif" font-size="14" lengthAdjust="spacing" textLength="61" x="149" y="278.772">durability</text><ellipse cx="140" cy="291.7222" fill="none" rx="3" ry="3" style="stroke:#038048;stroke-width:1.0;"></ellipse><text fill="#000000" font-family="sans-serif" font-size="14" lengthAdjust="spacing" textLength="30" x="149" y="295.0689">cost</text><line style="stroke:#181818;stroke-width:0.5;" x1="130" x2="229" y1="302.3706" y2="302.3706"></line></g><!--class Glv--><g id="elem_Glv"><rect codeline="19" fill="#F1F1F1" height="96.8906" id="Glv" rx="2.5" ry="2.5" style="stroke:#181818;stroke-width:0.5;" width="87" x="265" y="213.48"></rect><ellipse cx="283.6" cy="229.48" fill="#ADD1B2" rx="11" ry="11" style="stroke:#181818;stroke-width:1.0;"></ellipse><path d="M286.5688,235.1206 Q285.9906,235.4175 285.35,235.5581 Q284.7094,235.7144 284.0063,235.7144 Q281.5063,235.7144 280.1781,234.0738 Q278.8656,232.4175 278.8656,229.2925 Q278.8656,226.1675 280.1781,224.5113 Q281.5063,222.855 284.0063,222.855 Q284.7094,222.855 285.35,223.0113 Q286.0063,223.1675 286.5688,223.4644 L286.5688,226.1831 Q285.9438,225.605 285.35,225.3394 Q284.7563,225.0581 284.1313,225.0581 Q282.7875,225.0581 282.1,226.1363 Q281.4125,227.1988 281.4125,229.2925 Q281.4125,231.3863 282.1,232.4644 Q282.7875,233.5269 284.1313,233.5269 Q284.7563,233.5269 285.35,233.2613 Q285.9438,232.98 286.5688,232.4019 L286.5688,235.1206 Z " fill="#000000"></path><text fill="#000000" font-family="sans-serif" font-size="14" lengthAdjust="spacing" textLength="47" x="298.4" y="234.3267">Gloves</text><line style="stroke:#181818;stroke-width:0.5;" x1="266" x2="351" y1="245.48" y2="245.48"></line><ellipse cx="276" cy="259.1284" fill="none" rx="3" ry="3" style="stroke:#038048;stroke-width:1.0;"></ellipse><text fill="#000000" font-family="sans-serif" font-size="14" lengthAdjust="spacing" textLength="33" x="285" y="262.4751">rarity</text><ellipse cx="276" cy="275.4253" fill="none" rx="3" ry="3" style="stroke:#038048;stroke-width:1.0;"></ellipse><text fill="#000000" font-family="sans-serif" font-size="14" lengthAdjust="spacing" textLength="61" x="285" y="278.772">durability</text><ellipse cx="276" cy="291.7222" fill="none" rx="3" ry="3" style="stroke:#038048;stroke-width:1.0;"></ellipse><text fill="#000000" font-family="sans-serif" font-size="14" lengthAdjust="spacing" textLength="30" x="285" y="295.0689">cost</text><line style="stroke:#181818;stroke-width:0.5;" x1="266" x2="351" y1="302.3706" y2="302.3706"></line></g><!--class Bot--><g id="elem_Bot"><rect codeline="24" fill="#F1F1F1" height="96.8906" id="Bot" rx="2.5" ry="2.5" style="stroke:#181818;stroke-width:0.5;" width="125" x="387" y="213.48"></rect><ellipse cx="402" cy="229.48" fill="#ADD1B2" rx="11" ry="11" style="stroke:#181818;stroke-width:1.0;"></ellipse><path d="M404.9688,235.1206 Q404.3906,235.4175 403.75,235.5581 Q403.1094,235.7144 402.4063,235.7144 Q399.9063,235.7144 398.5781,234.0738 Q397.2656,232.4175 397.2656,229.2925 Q397.2656,226.1675 398.5781,224.5113 Q399.9063,222.855 402.4063,222.855 Q403.1094,222.855 403.75,223.0113 Q404.4063,223.1675 404.9688,223.4644 L404.9688,226.1831 Q404.3438,225.605 403.75,225.3394 Q403.1563,225.0581 402.5313,225.0581 Q401.1875,225.0581 400.5,226.1363 Q399.8125,227.1988 399.8125,229.2925 Q399.8125,231.3863 400.5,232.4644 Q401.1875,233.5269 402.5313,233.5269 Q403.1563,233.5269 403.75,233.2613 Q404.3438,232.98 404.9688,232.4019 L404.9688,235.1206 Z " fill="#000000"></path><text fill="#000000" font-family="sans-serif" font-size="14" lengthAdjust="spacing" textLength="93" x="416" y="234.3267">Bottom Piece</text><line style="stroke:#181818;stroke-width:0.5;" x1="388" x2="511" y1="245.48" y2="245.48"></line><ellipse cx="398" cy="259.1284" fill="none" rx="3" ry="3" style="stroke:#038048;stroke-width:1.0;"></ellipse><text fill="#000000" font-family="sans-serif" font-size="14" lengthAdjust="spacing" textLength="33" x="407" y="262.4751">rarity</text><ellipse cx="398" cy="275.4253" fill="none" rx="3" ry="3" style="stroke:#038048;stroke-width:1.0;"></ellipse><text fill="#000000" font-family="sans-serif" font-size="14" lengthAdjust="spacing" textLength="61" x="407" y="278.772">durability</text><ellipse cx="398" cy="291.7222" fill="none" rx="3" ry="3" style="stroke:#038048;stroke-width:1.0;"></ellipse><text fill="#000000" font-family="sans-serif" font-size="14" lengthAdjust="spacing" textLength="30" x="407" y="295.0689">cost</text><line style="stroke:#181818;stroke-width:0.5;" x1="388" x2="511" y1="302.3706" y2="302.3706"></line></g><!--class Shoe--><g id="elem_Shoe"><rect codeline="29" fill="#F1F1F1" height="96.8906" id="Shoe" rx="2.5" ry="2.5" style="stroke:#181818;stroke-width:0.5;" width="87" x="547" y="213.48"></rect><ellipse cx="566.95" cy="229.48" fill="#ADD1B2" rx="11" ry="11" style="stroke:#181818;stroke-width:1.0;"></ellipse><path d="M569.9188,235.1206 Q569.3406,235.4175 568.7,235.5581 Q568.0594,235.7144 567.3563,235.7144 Q564.8563,235.7144 563.5281,234.0738 Q562.2156,232.4175 562.2156,229.2925 Q562.2156,226.1675 563.5281,224.5113 Q564.8563,222.855 567.3563,222.855 Q568.0594,222.855 568.7,223.0113 Q569.3563,223.1675 569.9188,223.4644 L569.9188,226.1831 Q569.2938,225.605 568.7,225.3394 Q568.1063,225.0581 567.4813,225.0581 Q566.1375,225.0581 565.45,226.1363 Q564.7625,227.1988 564.7625,229.2925 Q564.7625,231.3863 565.45,232.4644 Q566.1375,233.5269 567.4813,233.5269 Q568.1063,233.5269 568.7,233.2613 Q569.2938,232.98 569.9188,232.4019 L569.9188,235.1206 Z " fill="#000000"></path><text fill="#000000" font-family="sans-serif" font-size="14" lengthAdjust="spacing" textLength="44" x="582.05" y="234.3267">Shoes</text><line style="stroke:#181818;stroke-width:0.5;" x1="548" x2="633" y1="245.48" y2="245.48"></line><ellipse cx="558" cy="259.1284" fill="none" rx="3" ry="3" style="stroke:#038048;stroke-width:1.0;"></ellipse><text fill="#000000" font-family="sans-serif" font-size="14" lengthAdjust="spacing" textLength="33" x="567" y="262.4751">rarity</text><ellipse cx="558" cy="275.4253" fill="none" rx="3" ry="3" style="stroke:#038048;stroke-width:1.0;"></ellipse><text fill="#000000" font-family="sans-serif" font-size="14" lengthAdjust="spacing" textLength="61" x="567" y="278.772">durability</text><ellipse cx="558" cy="291.7222" fill="none" rx="3" ry="3" style="stroke:#038048;stroke-width:1.0;"></ellipse><text fill="#000000" font-family="sans-serif" font-size="14" lengthAdjust="spacing" textLength="30" x="567" y="295.0689">cost</text><line style="stroke:#181818;stroke-width:0.5;" x1="548" x2="633" y1="302.3706" y2="302.3706"></line></g><!--link Char to Helm--><g id="link_Char_Helm"><path codeline="35" d="M219.61,134.93 C185.54,159.1 146.47,187.25 111.5,213.48 C105.92,217.67 104.847,218.4533 99.097,222.8733 " fill="none" id="Char-to-Helm" style="stroke:#181818;stroke-width:1.0;"></path><polygon fill="#181818" points="94.34,226.53,103.9132,224.2163,98.3041,223.4828,99.0377,217.8737,94.34,226.53" style="stroke:#181818;stroke-width:1.0;"></polygon><text fill="#000000" font-family="sans-serif" font-size="13" lengthAdjust="spacing" textLength="49" x="171.5" y="179.5469">Change</text></g><!--link Char to Top--><g id="link_Char_Top"><path codeline="36" d="M264.47,136.97 C247.39,161.89 231.5617,184.9706 215.7317,208.0706 " fill="none" id="Char-to-Top" style="stroke:#181818;stroke-width:1.0;"></path><polygon fill="#181818" points="212.34,213.02,220.7272,207.8571,215.1664,208.8955,214.128,203.3348,212.34,213.02" style="stroke:#181818;stroke-width:1.0;"></polygon><text fill="#000000" font-family="sans-serif" font-size="13" lengthAdjust="spacing" textLength="49" x="244.5" y="179.5469">Change</text></g><!--link Char to Glv--><g id="link_Char_Glv"><path codeline="37" d="M308.5,136.97 C308.5,161.89 308.5,183.92 308.5,207.02 " fill="none" id="Char-to-Glv" style="stroke:#181818;stroke-width:1.0;"></path><polygon fill="#181818" points="308.5,213.02,312.5,204.02,308.5,208.02,304.5,204.02,308.5,213.02" style="stroke:#181818;stroke-width:1.0;"></polygon><text fill="#000000" font-family="sans-serif" font-size="13" lengthAdjust="spacing" textLength="49" x="309.5" y="179.5469">Change</text></g><!--link Char to Bot--><g id="link_Char_Bot"><path codeline="38" d="M356.63,136.97 C375.3,161.89 392.7033,185.1175 410.0033,208.2175 " fill="none" id="Char-to-Bot" style="stroke:#181818;stroke-width:1.0;"></path><polygon fill="#181818" points="413.6,213.02,411.4067,203.4185,410.6028,209.0179,405.0033,208.214,413.6,213.02" style="stroke:#181818;stroke-width:1.0;"></polygon><text fill="#000000" font-family="sans-serif" font-size="13" lengthAdjust="spacing" textLength="49" x="387.5" y="179.5469">Change</text></g><!--link Char to Shoe--><g id="link_Char_Shoe"><path codeline="39" d="M397.4,126.69 C438.23,152.15 486.93,183.47 529.5,213.48 C535.09,217.42 536.0881,218.0692 541.7681,222.3492 " fill="none" id="Char-to-Shoe" style="stroke:#181818;stroke-width:1.0;"></path><polygon fill="#181818" points="546.56,225.96,541.7794,217.3492,542.5668,222.951,536.965,223.7384,546.56,225.96" style="stroke:#181818;stroke-width:1.0;"></polygon><text fill="#000000" font-family="sans-serif" font-size="13" lengthAdjust="spacing" textLength="49" x="482.5" y="179.5469">Change</text></g><!--SRC=[hP8n3i8m34NtdYBg14Az00C336L4WWkOOD58AK59MWaXxaxi56Xfc6YMsFxoqxSJgS4vaMygi20zsbo04vI9UoQwiv0LNCwuHLsZdys_wmTptIcKE5PARLfqu_hQU6_g7qtxohnx7XbVCfgC1jWXXNs75gpojqz-QYmSbHxKf76-e_QWmRrW9yobR19i79sPfMwdOSQrzTo6mZHatZaZAVg3oHT_dw9OnLTQKXxUTIZHejCAhIkjqBXfXLs_f2S0]--></g></svg>