<svg xmlns="http://www.w3.org/2000/svg" xmlns:xlink="http://www.w3.org/1999/xlink" contentstyletype="text/css" height="632px" preserveAspectRatio="none" style="width:845px;height:632px;background:#FFFFFF;" version="1.1" viewBox="0 0 845 632" width="845px" zoomAndPan="magnify"><defs></defs><g><!--class Player--><g id="elem_Player"><rect codeline="1" fill="#F1F1F1" height="113.1875" id="Player" rx="2.5" ry="2.5" style="stroke:#181818;stroke-width:0.5;" width="140" x="487.5" y="7"></rect><ellipse cx="532.75" cy="23" fill="#ADD1B2" rx="11" ry="11" style="stroke:#181818;stroke-width:1.0;"></ellipse><path d="M535.7188,28.6406 Q535.1406,28.9375 534.5,29.0781 Q533.8594,29.2344 533.1563,29.2344 Q530.6563,29.2344 529.3281,27.5938 Q528.0156,25.9375 528.0156,22.8125 Q528.0156,19.6875 529.3281,18.0313 Q530.6563,16.375 533.1563,16.375 Q533.8594,16.375 534.5,16.5313 Q535.1563,16.6875 535.7188,16.9844 L535.7188,19.7031 Q535.0938,19.125 534.5,18.8594 Q533.9063,18.5781 533.2813,18.5781 Q531.9375,18.5781 531.25,19.6563 Q530.5625,20.7188 530.5625,22.8125 Q530.5625,24.9063 531.25,25.9844 Q531.9375,27.0469 533.2813,27.0469 Q533.9063,27.0469 534.5,26.7813 Q535.0938,26.5 535.7188,25.9219 L535.7188,28.6406 Z " fill="#000000"></path><text fill="#000000" font-family="sans-serif" font-size="14" lengthAdjust="spacing" textLength="41" x="553.25" y="27.8467">Player</text><line style="stroke:#181818;stroke-width:0.5;" x1="488.5" x2="626.5" y1="39" y2="39"></line><ellipse cx="498.5" cy="52.6484" fill="none" rx="3" ry="3" style="stroke:#038048;stroke-width:1.0;"></ellipse><text fill="#000000" font-family="sans-serif" font-size="14" lengthAdjust="spacing" textLength="114" x="507.5" y="55.9951">String username</text><ellipse cx="498.5" cy="68.9453" fill="none" rx="3" ry="3" style="stroke:#038048;stroke-width:1.0;"></ellipse><text fill="#000000" font-family="sans-serif" font-size="14" lengthAdjust="spacing" textLength="52" x="507.5" y="72.292">int level</text><line style="stroke:#181818;stroke-width:0.5;" x1="488.5" x2="626.5" y1="79.5938" y2="79.5938"></line><ellipse cx="498.5" cy="93.2422" fill="#84BE84" rx="3" ry="3" style="stroke:#038048;stroke-width:1.0;"></ellipse><text fill="#000000" font-family="sans-serif" font-size="14" lengthAdjust="spacing" textLength="107" x="507.5" y="96.5889">void joinGame()</text><ellipse cx="498.5" cy="109.5391" fill="#84BE84" rx="3" ry="3" style="stroke:#038048;stroke-width:1.0;"></ellipse><text fill="#000000" font-family="sans-serif" font-size="14" lengthAdjust="spacing" textLength="92" x="507.5" y="112.8857">void levelUp()</text></g><!--class Game--><g id="elem_Game"><rect codeline="8" fill="#F1F1F1" height="113.1875" id="Game" rx="2.5" ry="2.5" style="stroke:#181818;stroke-width:0.5;" width="149" x="483" y="197.18"></rect><ellipse cx="532.75" cy="213.18" fill="#ADD1B2" rx="11" ry="11" style="stroke:#181818;stroke-width:1.0;"></ellipse><path d="M535.7188,218.8206 Q535.1406,219.1175 534.5,219.2581 Q533.8594,219.4144 533.1563,219.4144 Q530.6563,219.4144 529.3281,217.7737 Q528.0156,216.1175 528.0156,212.9925 Q528.0156,209.8675 529.3281,208.2112 Q530.6563,206.555 533.1563,206.555 Q533.8594,206.555 534.5,206.7112 Q535.1563,206.8675 535.7188,207.1644 L535.7188,209.8831 Q535.0938,209.305 534.5,209.0394 Q533.9063,208.7581 533.2813,208.7581 Q531.9375,208.7581 531.25,209.8362 Q530.5625,210.8987 530.5625,212.9925 Q530.5625,215.0862 531.25,216.1644 Q531.9375,217.2269 533.2813,217.2269 Q533.9063,217.2269 534.5,216.9612 Q535.0938,216.68 535.7188,216.1019 L535.7188,218.8206 Z " fill="#000000"></path><text fill="#000000" font-family="sans-serif" font-size="14" lengthAdjust="spacing" textLength="41" x="553.25" y="218.0267">Game</text><line style="stroke:#181818;stroke-width:0.5;" x1="484" x2="631" y1="229.18" y2="229.18"></line><ellipse cx="494" cy="242.8284" fill="none" rx="3" ry="3" style="stroke:#038048;stroke-width:1.0;"></ellipse><text fill="#000000" font-family="sans-serif" font-size="14" lengthAdjust="spacing" textLength="123" x="503" y="246.1751">String gameName</text><ellipse cx="494" cy="259.1253" fill="none" rx="3" ry="3" style="stroke:#038048;stroke-width:1.0;"></ellipse><text fill="#000000" font-family="sans-serif" font-size="14" lengthAdjust="spacing" textLength="89" x="503" y="262.472">int skillPoints</text><line style="stroke:#181818;stroke-width:0.5;" x1="484" x2="631" y1="269.7737" y2="269.7737"></line><ellipse cx="494" cy="283.4222" fill="#84BE84" rx="3" ry="3" style="stroke:#038048;stroke-width:1.0;"></ellipse><text fill="#000000" font-family="sans-serif" font-size="14" lengthAdjust="spacing" textLength="114" x="503" y="286.7689">void startGame()</text><ellipse cx="494" cy="299.7191" fill="#84BE84" rx="3" ry="3" style="stroke:#038048;stroke-width:1.0;"></ellipse><text fill="#000000" font-family="sans-serif" font-size="14" lengthAdjust="spacing" textLength="110" x="503" y="303.0657">void endGame()</text></g><!--class Item--><g id="elem_Item"><rect codeline="15" fill="#F1F1F1" height="96.8906" id="Item" rx="2.5" ry="2.5" style="stroke:#181818;stroke-width:0.5;" width="140" x="311.5" y="387.37"></rect><ellipse cx="362.25" cy="403.37" fill="#ADD1B2" rx="11" ry="11" style="stroke:#181818;stroke-width:1.0;"></ellipse><path d="M365.2188,409.0106 Q364.6406,409.3075 364,409.4481 Q363.3594,409.6044 362.6563,409.6044 Q360.1563,409.6044 358.8281,407.9637 Q357.5156,406.3075 357.5156,403.1825 Q357.5156,400.0575 358.8281,398.4012 Q360.1563,396.745 362.6563,396.745 Q363.3594,396.745 364,396.9012 Q364.6563,397.0575 365.2188,397.3544 L365.2188,400.0731 Q364.5938,399.495 364,399.2294 Q363.4063,398.9481 362.7813,398.9481 Q361.4375,398.9481 360.75,400.0262 Q360.0625,401.0887 360.0625,403.1825 Q360.0625,405.2762 360.75,406.3544 Q361.4375,407.4169 362.7813,407.4169 Q363.4063,407.4169 364,407.1512 Q364.5938,406.87 365.2188,406.2919 L365.2188,409.0106 Z " fill="#000000"></path><text fill="#000000" font-family="sans-serif" font-size="14" lengthAdjust="spacing" textLength="30" x="382.75" y="408.2167">Item</text><line style="stroke:#181818;stroke-width:0.5;" x1="312.5" x2="450.5" y1="419.37" y2="419.37"></line><ellipse cx="322.5" cy="433.0184" fill="none" rx="3" ry="3" style="stroke:#038048;stroke-width:1.0;"></ellipse><text fill="#000000" font-family="sans-serif" font-size="14" lengthAdjust="spacing" textLength="114" x="331.5" y="436.3651">String itemName</text><ellipse cx="322.5" cy="449.3153" fill="none" rx="3" ry="3" style="stroke:#038048;stroke-width:1.0;"></ellipse><text fill="#000000" font-family="sans-serif" font-size="14" lengthAdjust="spacing" textLength="89" x="331.5" y="452.662">int itemValue</text><line style="stroke:#181818;stroke-width:0.5;" x1="312.5" x2="450.5" y1="459.9637" y2="459.9637"></line><ellipse cx="322.5" cy="473.6122" fill="#84BE84" rx="3" ry="3" style="stroke:#038048;stroke-width:1.0;"></ellipse><text fill="#000000" font-family="sans-serif" font-size="14" lengthAdjust="spacing" textLength="98" x="331.5" y="476.9589">void useItem()</text></g><!--class Skill_Table--><g id="elem_Skill_Table"><rect codeline="21" fill="#F1F1F1" height="80.5938" id="Skill_Table" rx="2.5" ry="2.5" style="stroke:#181818;stroke-width:0.5;" width="149" x="7" y="395.52"></rect><ellipse cx="42.7" cy="411.52" fill="#ADD1B2" rx="11" ry="11" style="stroke:#181818;stroke-width:1.0;"></ellipse><path d="M45.6688,417.1606 Q45.0906,417.4575 44.45,417.5981 Q43.8094,417.7544 43.1063,417.7544 Q40.6063,417.7544 39.2781,416.1138 Q37.9656,414.4575 37.9656,411.3325 Q37.9656,408.2075 39.2781,406.5513 Q40.6063,404.895 43.1063,404.895 Q43.8094,404.895 44.45,405.0513 Q45.1063,405.2075 45.6688,405.5044 L45.6688,408.2231 Q45.0438,407.645 44.45,407.3794 Q43.8563,407.0981 43.2313,407.0981 Q41.8875,407.0981 41.2,408.1763 Q40.5125,409.2388 40.5125,411.3325 Q40.5125,413.4263 41.2,414.5044 Q41.8875,415.5669 43.2313,415.5669 Q43.8563,415.5669 44.45,415.3013 Q45.0438,415.02 45.6688,414.4419 L45.6688,417.1606 Z " fill="#000000"></path><text fill="#000000" font-family="sans-serif" font-size="14" lengthAdjust="spacing" textLength="71" x="61.3" y="416.3667">Skill_Table</text><line style="stroke:#181818;stroke-width:0.5;" x1="8" x2="155" y1="427.52" y2="427.52"></line><ellipse cx="18" cy="441.1684" fill="none" rx="3" ry="3" style="stroke:#038048;stroke-width:1.0;"></ellipse><text fill="#000000" font-family="sans-serif" font-size="14" lengthAdjust="spacing" textLength="123" x="27" y="444.5151">void characterSkill</text><ellipse cx="18" cy="457.4653" fill="none" rx="3" ry="3" style="stroke:#038048;stroke-width:1.0;"></ellipse><text fill="#000000" font-family="sans-serif" font-size="14" lengthAdjust="spacing" textLength="119" x="27" y="460.812">int skillPointValue</text><line style="stroke:#181818;stroke-width:0.5;" x1="8" x2="155" y1="468.1138" y2="468.1138"></line></g><!--class Achievements--><g id="elem_Achievements"><rect codeline="26" fill="#F1F1F1" height="80.5938" id="Achievements" rx="2.5" ry="2.5" style="stroke:#181818;stroke-width:0.5;" width="184" x="654.5" y="395.52"></rect><ellipse cx="693.8" cy="411.52" fill="#ADD1B2" rx="11" ry="11" style="stroke:#181818;stroke-width:1.0;"></ellipse><path d="M696.7688,417.1606 Q696.1906,417.4575 695.55,417.5981 Q694.9094,417.7544 694.2063,417.7544 Q691.7063,417.7544 690.3781,416.1138 Q689.0656,414.4575 689.0656,411.3325 Q689.0656,408.2075 690.3781,406.5513 Q691.7063,404.895 694.2063,404.895 Q694.9094,404.895 695.55,405.0513 Q696.2063,405.2075 696.7688,405.5044 L696.7688,408.2231 Q696.1438,407.645 695.55,407.3794 Q694.9563,407.0981 694.3313,407.0981 Q692.9875,407.0981 692.3,408.1763 Q691.6125,409.2388 691.6125,411.3325 Q691.6125,413.4263 692.3,414.5044 Q692.9875,415.5669 694.3313,415.5669 Q694.9563,415.5669 695.55,415.3013 Q696.1438,415.02 696.7688,414.4419 L696.7688,417.1606 Z " fill="#000000"></path><text fill="#000000" font-family="sans-serif" font-size="14" lengthAdjust="spacing" textLength="98" x="713.2" y="416.3667">Achievements</text><line style="stroke:#181818;stroke-width:0.5;" x1="655.5" x2="837.5" y1="427.52" y2="427.52"></line><ellipse cx="665.5" cy="441.1684" fill="none" rx="3" ry="3" style="stroke:#038048;stroke-width:1.0;"></ellipse><text fill="#000000" font-family="sans-serif" font-size="14" lengthAdjust="spacing" textLength="73" x="674.5" y="444.5151">String Title</text><ellipse cx="665.5" cy="457.4653" fill="none" rx="3" ry="3" style="stroke:#038048;stroke-width:1.0;"></ellipse><text fill="#000000" font-family="sans-serif" font-size="14" lengthAdjust="spacing" textLength="158" x="674.5" y="460.812">boolean Requirements</text><line style="stroke:#181818;stroke-width:0.5;" x1="655.5" x2="837.5" y1="468.1138" y2="468.1138"></line></g><!--class Trophy_Points--><g id="elem_Trophy_Points"><rect codeline="31" fill="#F1F1F1" height="64.2969" id="Trophy_Points" rx="2.5" ry="2.5" style="stroke:#181818;stroke-width:0.5;" width="130" x="681.5" y="561.26"></rect><ellipse cx="696.5" cy="577.26" fill="#ADD1B2" rx="11" ry="11" style="stroke:#181818;stroke-width:1.0;"></ellipse><path d="M699.4688,582.9006 Q698.8906,583.1975 698.25,583.3381 Q697.6094,583.4944 696.9063,583.4944 Q694.4063,583.4944 693.0781,581.8538 Q691.7656,580.1975 691.7656,577.0725 Q691.7656,573.9475 693.0781,572.2913 Q694.4063,570.635 696.9063,570.635 Q697.6094,570.635 698.25,570.7913 Q698.9063,570.9475 699.4688,571.2444 L699.4688,573.9631 Q698.8438,573.385 698.25,573.1194 Q697.6563,572.8381 697.0313,572.8381 Q695.6875,572.8381 695,573.9163 Q694.3125,574.9788 694.3125,577.0725 Q694.3125,579.1663 695,580.2444 Q695.6875,581.3069 697.0313,581.3069 Q697.6563,581.3069 698.25,581.0413 Q698.8438,580.76 699.4688,580.1819 L699.4688,582.9006 Z " fill="#000000"></path><text fill="#000000" font-family="sans-serif" font-size="14" lengthAdjust="spacing" textLength="98" x="710.5" y="582.1067">Trophy_Points</text><line style="stroke:#181818;stroke-width:0.5;" x1="682.5" x2="810.5" y1="593.26" y2="593.26"></line><ellipse cx="692.5" cy="606.9084" fill="none" rx="3" ry="3" style="stroke:#038048;stroke-width:1.0;"></ellipse><text fill="#000000" font-family="sans-serif" font-size="14" lengthAdjust="spacing" textLength="94" x="701.5" y="610.2551">int Point Total</text><line style="stroke:#181818;stroke-width:0.5;" x1="682.5" x2="810.5" y1="617.5569" y2="617.5569"></line></g><!--class Character--><g id="elem_Character"><rect codeline="35" fill="#F1F1F1" height="113.1875" id="Character" rx="2.5" ry="2.5" style="stroke:#181818;stroke-width:0.5;" width="189" x="160" y="197.18"></rect><ellipse cx="216.75" cy="213.18" fill="#ADD1B2" rx="11" ry="11" style="stroke:#181818;stroke-width:1.0;"></ellipse><path d="M219.7188,218.8206 Q219.1406,219.1175 218.5,219.2581 Q217.8594,219.4144 217.1563,219.4144 Q214.6563,219.4144 213.3281,217.7737 Q212.0156,216.1175 212.0156,212.9925 Q212.0156,209.8675 213.3281,208.2112 Q214.6563,206.555 217.1563,206.555 Q217.8594,206.555 218.5,206.7112 Q219.1563,206.8675 219.7188,207.1644 L219.7188,209.8831 Q219.0938,209.305 218.5,209.0394 Q217.9063,208.7581 217.2813,208.7581 Q215.9375,208.7581 215.25,209.8362 Q214.5625,210.8987 214.5625,212.9925 Q214.5625,215.0862 215.25,216.1644 Q215.9375,217.2269 217.2813,217.2269 Q217.9063,217.2269 218.5,216.9612 Q219.0938,216.68 219.7188,216.1019 L219.7188,218.8206 Z " fill="#000000"></path><text fill="#000000" font-family="sans-serif" font-size="14" lengthAdjust="spacing" textLength="67" x="237.25" y="218.0267">Character</text><line style="stroke:#181818;stroke-width:0.5;" x1="161" x2="348" y1="229.18" y2="229.18"></line><ellipse cx="171" cy="242.8284" fill="none" rx="3" ry="3" style="stroke:#038048;stroke-width:1.0;"></ellipse><text fill="#000000" font-family="sans-serif" font-size="14" lengthAdjust="spacing" textLength="149" x="180" y="246.1751">String characterName</text><line style="stroke:#181818;stroke-width:0.5;" x1="161" x2="348" y1="253.4769" y2="253.4769"></line><ellipse cx="171" cy="267.1253" fill="#84BE84" rx="3" ry="3" style="stroke:#038048;stroke-width:1.0;"></ellipse><text fill="#000000" font-family="sans-serif" font-size="14" lengthAdjust="spacing" textLength="103" x="180" y="270.472">void earnItem()</text><ellipse cx="171" cy="283.4222" fill="#84BE84" rx="3" ry="3" style="stroke:#038048;stroke-width:1.0;"></ellipse><text fill="#000000" font-family="sans-serif" font-size="14" lengthAdjust="spacing" textLength="163" x="180" y="286.7689">void earnAchievement()</text><ellipse cx="171" cy="299.7191" fill="#84BE84" rx="3" ry="3" style="stroke:#038048;stroke-width:1.0;"></ellipse><text fill="#000000" font-family="sans-serif" font-size="14" lengthAdjust="spacing" textLength="142" x="180" y="303.0657">void earnSkillPoints()</text></g><!--class SkillPoints--><g id="elem_SkillPoints"><rect fill="#F1F1F1" height="48" id="SkillPoints" rx="2.5" ry="2.5" style="stroke:#181818;stroke-width:0.5;" width="101" x="175" y="569.41"></rect><ellipse cx="190" cy="585.41" fill="#ADD1B2" rx="11" ry="11" style="stroke:#181818;stroke-width:1.0;"></ellipse><path d="M192.9688,591.0506 Q192.3906,591.3475 191.75,591.4881 Q191.1094,591.6444 190.4063,591.6444 Q187.9063,591.6444 186.5781,590.0038 Q185.2656,588.3475 185.2656,585.2225 Q185.2656,582.0975 186.5781,580.4413 Q187.9063,578.785 190.4063,578.785 Q191.1094,578.785 191.75,578.9413 Q192.4063,579.0975 192.9688,579.3944 L192.9688,582.1131 Q192.3438,581.535 191.75,581.2694 Q191.1563,580.9881 190.5313,580.9881 Q189.1875,580.9881 188.5,582.0663 Q187.8125,583.1288 187.8125,585.2225 Q187.8125,587.3163 188.5,588.3944 Q189.1875,589.4569 190.5313,589.4569 Q191.1563,589.4569 191.75,589.1913 Q192.3438,588.91 192.9688,588.3319 L192.9688,591.0506 Z " fill="#000000"></path><text fill="#000000" font-family="sans-serif" font-size="14" lengthAdjust="spacing" textLength="69" x="204" y="590.2567">SkillPoints</text><line style="stroke:#181818;stroke-width:0.5;" x1="176" x2="275" y1="601.41" y2="601.41"></line><line style="stroke:#181818;stroke-width:0.5;" x1="176" x2="275" y1="609.41" y2="609.41"></line></g><!--link Player to Game--><g id="link_Player_Game"><path codeline="42" d="M557.5,120.54 C557.5,144.6 557.5,172.65 557.5,196.72 " fill="none" id="Player-Game" style="stroke:#181818;stroke-width:1.0;"></path><polygon fill="#000000" points="562.5,163.7464,565.4389,154.7013,559.5611,154.7013,562.5,163.7464" style="stroke:#000000;stroke-width:1.0;"></polygon><text fill="#000000" font-family="sans-serif" font-size="13" lengthAdjust="spacing" textLength="90" x="571.5" y="163.2469">participates in</text><text fill="#000000" font-family="sans-serif" font-size="13" lengthAdjust="spacing" textLength="8" x="549.0375" y="140.0662">1</text><text fill="#000000" font-family="sans-serif" font-size="13" lengthAdjust="spacing" textLength="23" x="533.0984" y="185.9275">0..*</text></g><!--link Game to Item--><g id="link_Game_Item"><path codeline="43" d="M482.91,268.84 C442.54,280.66 396.04,302.06 371.5,340.37 C362.69,354.12 362.2,371.36 364.89,387.33 " fill="none" id="Game-Item" style="stroke:#181818;stroke-width:1.0;"></path><polygon fill="#000000" points="372.9715,352.479,381.4369,348.1444,377.2724,343.9964,372.9715,352.479" style="stroke:#000000;stroke-width:1.0;"></polygon><text fill="#000000" font-family="sans-serif" font-size="13" lengthAdjust="spacing" textLength="54" x="385.5" y="353.4369">contains</text><text fill="#000000" font-family="sans-serif" font-size="13" lengthAdjust="spacing" textLength="8" x="466.8054" y="266.694">1</text><text fill="#000000" font-family="sans-serif" font-size="13" lengthAdjust="spacing" textLength="23" x="337.7613" y="376.1838">0..*</text></g><!--link Game to Achievements--><g id="link_Game_Achievements"><path codeline="44" d="M616.26,310.76 C644.98,338.11 678.86,370.38 704.86,395.16 " fill="none" id="Game-Achievements" style="stroke:#181818;stroke-width:1.0;"></path><polygon fill="#000000" points="671.1203,352.3851,666.5982,344.0184,662.544,348.2743,671.1203,352.3851" style="stroke:#000000;stroke-width:1.0;"></polygon><text fill="#000000" font-family="sans-serif" font-size="13" lengthAdjust="spacing" textLength="23" x="676.5" y="353.4369">has</text><text fill="#000000" font-family="sans-serif" font-size="13" lengthAdjust="spacing" textLength="8" x="614.5916" y="330.2908">1</text><text fill="#000000" font-family="sans-serif" font-size="13" lengthAdjust="spacing" textLength="23" x="673.3908" y="384.5625">0..*</text></g><!--link Achievements to Trophy_Points--><g id="link_Achievements_Trophy_Points"><path codeline="45" d="M746.5,476.48 C746.5,502.68 746.5,536.55 746.5,560.91 " fill="none" id="Achievements-Trophy_Points" style="stroke:#181818;stroke-width:1.0;"></path><polygon fill="#000000" points="751.5,527.8264,754.4389,518.7813,748.5611,518.7813,751.5,527.8264" style="stroke:#000000;stroke-width:1.0;"></polygon><text fill="#000000" font-family="sans-serif" font-size="13" lengthAdjust="spacing" textLength="36" x="760.5" y="527.3269">earns</text><text fill="#000000" font-family="sans-serif" font-size="13" lengthAdjust="spacing" textLength="8" x="737.8625" y="496.2335">1</text><text fill="#000000" font-family="sans-serif" font-size="13" lengthAdjust="spacing" textLength="23" x="721.2359" y="550.1153">0..*</text></g><!--link Game to SkillPoints--><g id="link_Game_SkillPoints"><path codeline="46" d="M549.85,310.64 C539.88,362.51 517.5,438.44 468.5,484.26 C413.35,535.83 329.53,565.64 276.15,580.45 " fill="none" id="Game-SkillPoints" style="stroke:#181818;stroke-width:1.0;"></path><polygon fill="#000000" points="528.9393,439.3965,537.4439,435.1396,533.3175,430.9537,528.9393,439.3965" style="stroke:#000000;stroke-width:1.0;"></polygon><text fill="#000000" font-family="sans-serif" font-size="13" lengthAdjust="spacing" textLength="47" x="541.5" y="440.3869">obtains</text><text fill="#000000" font-family="sans-serif" font-size="13" lengthAdjust="spacing" textLength="8" x="540.4302" y="330.5596">1</text><text fill="#000000" font-family="sans-serif" font-size="13" lengthAdjust="spacing" textLength="23" x="284.113" y="574.904">1..*</text></g><!--link Skill_Table to SkillPoints--><g id="link_Skill_Table_SkillPoints"><path codeline="47" d="M122.2844,480.8844 C149.4444,510.2444 177.3645,540.4066 199.9845,564.8466 " fill="none" id="Skill_Table-SkillPoints" style="stroke:#181818;stroke-width:1.0;"></path><polygon fill="#181818" points="118.21,476.48,121.3853,485.8029,121.6053,480.1504,127.2579,480.3704,118.21,476.48" style="stroke:#181818;stroke-width:1.0;"></polygon><polygon fill="#181818" points="204.06,569.25,200.8823,559.9278,200.6637,565.5805,195.0111,565.3619,204.06,569.25" style="stroke:#181818;stroke-width:1.0;"></polygon><text fill="#000000" font-family="sans-serif" font-size="13" lengthAdjust="spacing" textLength="8" x="115.4232" y="496.2335">1</text><text fill="#000000" font-family="sans-serif" font-size="13" lengthAdjust="spacing" textLength="23" x="172.6191" y="558.221">0..*</text></g><!--link Character to Skill_Table--><g id="link_Character_Skill_Table"><path codeline="48" d="M159.62,308.73 C147.22,318.26 135.4,328.86 125.5,340.37 C111.81,356.28 101.5,377.16 94.31,395.25 " fill="none" id="Character-Skill_Table" style="stroke:#181818;stroke-width:1.0;"></path><polygon fill="#000000" points="127.4876,352.9271,135.2827,347.4785,130.5914,343.9372,127.4876,352.9271" style="stroke:#000000;stroke-width:1.0;"></polygon><text fill="#000000" font-family="sans-serif" font-size="13" lengthAdjust="spacing" textLength="59" x="139.5" y="353.4369">accesses</text><text fill="#000000" font-family="sans-serif" font-size="13" lengthAdjust="spacing" textLength="8" x="144.0495" y="309.4353">1</text><text fill="#000000" font-family="sans-serif" font-size="13" lengthAdjust="spacing" textLength="23" x="71.527" y="384.3668">0..*</text></g><!--link Character to Item--><g id="link_Character_Item"><path codeline="49" d="M261.64,310.83 C265.49,326.78 271.4,343.56 280.5,357.37 C288.7,369.83 299.6,381.1 311.21,390.95 " fill="none" id="Character-Item" style="stroke:#181818;stroke-width:1.0;"></path><polygon fill="#000000" points="288.1307,353.1884,285.871,343.9502,280.8725,347.0428,288.1307,353.1884" style="stroke:#000000;stroke-width:1.0;"></polygon><text fill="#000000" font-family="sans-serif" font-size="13" lengthAdjust="spacing" textLength="36" x="294.5" y="353.4369">earns</text><text fill="#000000" font-family="sans-serif" font-size="13" lengthAdjust="spacing" textLength="8" x="254.0031" y="330.3689">1</text><text fill="#000000" font-family="sans-serif" font-size="13" lengthAdjust="spacing" textLength="23" x="280.4144" y="383.0322">0..*</text></g><!--link Character to Achievements--><g id="link_Character_Achievements"><path codeline="50" d="M349.14,287.31 C424.75,313.57 533.29,351.86 627.5,387.37 C636.14,390.63 645.1,394.07 654.06,397.57 " fill="none" id="Character-Achievements" style="stroke:#181818;stroke-width:1.0;"></path><polygon fill="#000000" points="555.202,350.6367,547.6954,344.7971,545.6966,350.3246,555.202,350.6367" style="stroke:#000000;stroke-width:1.0;"></polygon><text fill="#000000" font-family="sans-serif" font-size="13" lengthAdjust="spacing" textLength="36" x="559.5" y="353.4369">earns</text><text fill="#000000" font-family="sans-serif" font-size="13" lengthAdjust="spacing" textLength="8" x="357.0004" y="286.4569">1</text><text fill="#000000" font-family="sans-serif" font-size="13" lengthAdjust="spacing" textLength="23" x="623.4269" y="391.2822">0..*</text></g><!--link Character to SkillPoints--><g id="link_Character_SkillPoints"><path codeline="51" d="M249.71,310.53 C243.26,385.64 232.06,516 227.51,569 " fill="none" id="Character-SkillPoints" style="stroke:#181818;stroke-width:1.0;"></path><polygon fill="#000000" points="247.0721,440.8681,250.7743,432.1077,244.918,431.6047,247.0721,440.8681" style="stroke:#000000;stroke-width:1.0;"></polygon><text fill="#000000" font-family="sans-serif" font-size="13" lengthAdjust="spacing" textLength="36" x="256.5" y="440.3869">earns</text><text fill="#000000" font-family="sans-serif" font-size="13" lengthAdjust="spacing" textLength="8" x="240.6387" y="330.4362">1</text><text fill="#000000" font-family="sans-serif" font-size="13" lengthAdjust="spacing" textLength="23" x="202.1968" y="558.305">0..*</text></g><!--SRC=[XPBBQiCm44Nt_eeXgpvmQBQc14eNfPiG6hVRC566MAqYkP8I2AN_Nab-IKv2lVFLcJjtHc82ZO6bm1Df-Cd0VVShgxdSmS6GbhYdHkJIWg0ZYURtgFWMFXMNBuwukOt40BtNJllDCXRiFJCotpbfqPk7GcDHspCxajjOyp7C5nTYwNfRC_HujRGVzU1EMYG3UEK3nI5kwyRqjN7UbM-mBd4Z-jW1PHLgP9Pq02u5QinxeoTMSRUEFRceet0bjwADiL5A44fue-y3rmqzU9HQrTLftSpRcVYkGO5IMHG3_Tn57BNheu-MJgXbEtugHj7FpbR31JHhQz_FP3Q1F8V9mtHwDsbklO3QtIfdl4PB1hY4UHOEKZRSNW5CIOjScijGiiq2AlHS8gPykhaYH3-pdWKqciY1QjEbY5-2htZCytbd7zLamzhJ275z0SWO6KFU-5f1kuWkwZLij8h_y7Iyblu3]--></g></svg>